<svg id="Graphic_Elements" data-name="Graphic Elements" xmlns="http://www.w3.org/2000/svg" viewBox="0 0 1200 1200"><title>rm533-solid-32</title><path d="M582.8,960.85,286,1116.89a21,21,0,0,1-30.54-22.18L312.14,764.2a37,37,0,0,0-10.63-32.71L61.38,497.42A21,21,0,0,1,73,461.52L404.89,413.3a37,37,0,0,0,27.83-20.22L581.13,92.37a21,21,0,0,1,37.74,0L767.28,393.08a37,37,0,0,0,27.83,20.22L1127,461.52a21,21,0,0,1,11.66,35.9L898.49,731.49a37,37,0,0,0-10.63,32.71l56.69,330.51A21,21,0,0,1,914,1116.89l-296.81-156A37,37,0,0,0,582.8,960.85Z"/></svg>