<svg id="Graphic_Elements" data-name="Graphic Elements" xmlns="http://www.w3.org/2000/svg" viewBox="0 0 1200 1200"><title>rm533-outline-32</title><path d="M1133.08,514.67a39.39,39.39,0,0,0-21.83-67.18L791,401a16.6,16.6,0,0,1-12.49-9.07L635.32,101.71a39.38,39.38,0,0,0-70.64,0L421.47,391.89A16.6,16.6,0,0,1,409,401L88.75,447.49a39.39,39.39,0,0,0-21.83,67.18L298.64,740.54a16.56,16.56,0,0,1,4.77,14.68l-54.7,318.94a39.39,39.39,0,0,0,57.15,41.52L592.28,965.1a16.6,16.6,0,0,1,15.44,0l286.42,150.58a39.39,39.39,0,0,0,57.15-41.52l-54.7-318.94a16.56,16.56,0,0,1,4.77-14.68ZM859,761.67l54.7,318.94a1,1,0,0,1-.49,1.21,1,1,0,0,1-1.29.09L625.47,931.33a54.71,54.71,0,0,0-50.94,0L288.1,1081.91a1,1,0,0,1-1.29-.09,1,1,0,0,1-.49-1.21L341,761.67a54.75,54.75,0,0,0-15.74-48.45L93.55,487.35a1.23,1.23,0,0,1,.69-2.1l320.23-46.53a54.72,54.72,0,0,0,41.21-30L598.89,118.59a1.25,1.25,0,0,1,2.22,0L744.32,408.77a54.72,54.72,0,0,0,41.21,30l320.23,46.53a1.23,1.23,0,0,1,.69,2.1L874.72,713.22A54.75,54.75,0,0,0,859,761.67Z"/></svg>