<svg id="Graphic_Elements" data-name="Graphic Elements" xmlns="http://www.w3.org/2000/svg" viewBox="0 0 1200 1200"><g id="layer1"><g id="g2990"><g id="g2992"><path id="path2994" d="M633,601.16c-10.45,302-33.77,547.73-52.08,548.84s-24.67-242.84-14.22-544.85c.07-2.1.15-4.21.22-6.31C577.41,296.83,600.73,51.11,619,50s24.68,242.84,14.22,544.85C633.19,597,633.12,599.06,633,601.16Z" style="fill:none;stroke:#000;stroke-miterlimit:9.913200240250521;stroke-width:5.471826485715057px"/><path id="path2996" d="M851.1,684.68C754.54,971,563.84,1165.3,425.15,1118.57S252.3,801.81,348.86,515.45l0-.13C445.46,229,636.16,34.7,774.85,81.43S947.7,398.19,851.14,684.55Z" style="fill:none;stroke:#000;stroke-miterlimit:9.913175422123624;stroke-width:5.471812786760048px"/><path id="path2998" d="M897.41,904.89c-216.33,211-524.85,245.58-689.11,77.19s-122-475.95,94.28-687S827.43,49.52,991.69,217.91,1113.74,693.87,897.41,904.89Z" style="fill:none;stroke:#000;stroke-miterlimit:9.913168923316618;stroke-width:5.471809199589059px"/><path id="path3000" d="M665.48,131.83c299.29,41.86,512.6,285.41,476.44,544s-308.11,434.24-607.4,392.38S21.91,782.78,58.08,524.22,366.19,90,665.48,131.83Z" style="fill:none;stroke:#000;stroke-miterlimit:9.91320019687207;stroke-width:5.47182646177129px"/><path id="path3002" d="M915.61,366c180,242.78,184.55,544.34,10.24,673.56S464.34,1076.75,284.37,834,99.82,289.63,274.13,160.42,735.64,123.27,915.61,366Z" style="fill:none;stroke:#000;stroke-miterlimit:9.913200341241483;stroke-width:5.471826541459418px"/><path id="path3004" d="M801.82,550.78c71.6,293.6,39.28,553.64-72.18,580.82S469.77,942.81,398.18,649.22,358.9,95.58,470.36,68.4,730.23,257.19,801.82,550.78Z" style="fill:none;stroke:#000;stroke-miterlimit:9.913200606359002;stroke-width:5.471826687797334px"/></g><g id="g3006"><path id="path3008" d="M731,1060.1c.47,36.17-57.78,65.67-130.1,65.91s-131.33-28.9-131.8-65.06v-.85c-.46-36.16,57.79-65.67,130.11-65.9s131.32,28.89,131.79,65.06Q731,1059.68,731,1060.1Z" style="fill:none;stroke:#000;stroke-miterlimit:9.913200378417969;stroke-width:5.471826561979863px"/><path id="path3010" d="M854.29,1019.6c0,70.22-113.85,127.15-254.29,127.15s-254.29-56.93-254.29-127.15h0c0-70.23,113.85-127.15,254.29-127.15S854.29,949.37,854.29,1019.6Z" style="fill:none;stroke:#000;stroke-miterlimit:9.913200378417969;stroke-width:5.471826561979863px"/><path id="path3012" d="M962.85,954.7c1.55,100.2-159.63,182-360,182.83s-364.1-79.82-365.66-180q0-1.41,0-2.82c-1.55-100.2,159.63-182.05,360-182.83s364.1,79.82,365.66,180Q962.87,953.29,962.85,954.7Z" style="fill:none;stroke:#000;stroke-miterlimit:9.913200378417969;stroke-width:5.471826561979863px"/><path id="path3014" d="M1050.32,869.19c0,124.36-201.62,225.17-450.33,225.17S149.66,993.55,149.66,869.19,351.28,644,600,644,1050.32,744.83,1050.32,869.19Z" style="fill:none;stroke:#000;stroke-miterlimit:9.913200378417969;stroke-width:5.471826561979863px"/><path id="path3016" d="M1111.63,768c1.84,141.28-225.72,256.56-508.27,257.49S90.24,912.67,88.4,771.39c0-1.12,0-2.23,0-3.35C86.55,626.76,314.11,511.48,596.66,510.55s513.12,112.86,515,254.14C1111.64,765.81,1111.64,766.92,1111.63,768Z" style="fill:none;stroke:#000;stroke-miterlimit:9.913200378417969;stroke-width:5.471826561979863px"/><path id="path3018" d="M1143.19,657.12c1.36,150-240.74,272.15-540.74,272.82S58.17,809.57,56.82,659.57c0-.82,0-1.63,0-2.45C55.47,507.12,297.56,385,597.56,384.3s544.28,120.37,545.63,270.37C1143.2,655.49,1143.2,656.3,1143.19,657.12Z" style="fill:none;stroke:#000;stroke-miterlimit:9.913200378417969;stroke-width:5.471826561979863px"/><path id="path3020" d="M1143.19,542.88c1.36,150-240.74,272.14-540.74,272.82S58.17,695.33,56.82,545.33c0-.82,0-1.63,0-2.45-1.35-150,240.74-272.15,540.74-272.82s544.28,120.37,545.63,270.37C1143.2,541.25,1143.2,542.06,1143.19,542.88Z" style="fill:none;stroke:#000;stroke-miterlimit:9.913200378417969;stroke-width:5.471826561979863px"/><path id="path3022" d="M1111.63,432c1.84,141.28-225.72,256.56-508.27,257.49S90.24,576.59,88.4,435.31c0-1.12,0-2.23,0-3.35C86.55,290.68,314.11,175.4,596.66,174.47s513.12,112.86,515,254.14C1111.64,429.73,1111.64,430.84,1111.63,432Z" style="fill:none;stroke:#000;stroke-miterlimit:9.913200378417969;stroke-width:5.471826561979863px"/><path id="path3024" d="M1050.32,330.81C1050.32,455.17,848.7,556,600,556S149.66,455.17,149.66,330.81,351.28,105.64,600,105.64,1050.32,206.45,1050.32,330.81Z" style="fill:none;stroke:#000;stroke-miterlimit:9.913200378417969;stroke-width:5.471826561979863px"/><path id="path3026" d="M962.85,245.3c1.55,100.2-159.63,182.05-360,182.83s-364.1-79.82-365.66-180q0-1.41,0-2.82c-1.55-100.2,159.63-182,360-182.83s364.1,79.82,365.66,180Q962.87,243.89,962.85,245.3Z" style="fill:none;stroke:#000;stroke-miterlimit:9.913200378417969;stroke-width:5.471826561979863px"/><path id="path3028" d="M854.29,180.4c0,70.23-113.85,127.15-254.29,127.15S345.71,250.63,345.71,180.4,459.56,53.25,600,53.25,854.29,110.18,854.29,180.4Z" style="fill:none;stroke:#000;stroke-miterlimit:9.913200378417969;stroke-width:5.471826561979863px"/><path id="path3030" d="M731,139.9c.47,36.16-57.78,65.67-130.1,65.9s-131.33-28.89-131.8-65.06v-.84c-.46-36.17,57.79-65.67,130.11-65.91S730.48,102.89,731,139.05C731,139.33,731,139.61,731,139.9Z" style="fill:none;stroke:#000;stroke-miterlimit:9.913200378417969;stroke-width:5.471826561979863px"/></g><path id="path3032" d="M1147.18,600c0,302.2-245,547.18-547.18,547.18S52.82,902.2,52.82,600,297.8,52.82,600,52.82,1147.18,297.8,1147.18,600Z" style="fill:none;stroke:#000;stroke-miterlimit:9.913200378417969;stroke-width:5.471826561979863px"/></g></g></svg>